<svg width="24" height="24" viewBox="0 0 24 24" fill="none" xmlns="http://www.w3.org/2000/svg">
<path d="M21.7396 0H1.52357C1.1195 0 0.731986 0.159497 0.446259 0.443404C0.160532 0.727312 0 1.11237 0 1.51388V21.5978C0 21.9993 0.160532 22.3843 0.446259 22.6682C0.731986 22.9522 1.1195 23.1116 1.52357 23.1116H5.82585C6.11199 23.1113 6.38886 23.0108 6.60792 22.8279C6.82699 22.645 6.97425 22.3913 7.02391 22.1113L7.3595 20.254L8.29915 15.0421H11.3899L14.0948 20.254C14.1344 20.3391 14.1816 20.4206 14.2358 20.4974L15.2694 22.4614C15.3705 22.6605 15.5248 22.828 15.7154 22.9457C15.906 23.0633 16.1256 23.1265 16.35 23.1283H21.7396C21.9395 23.1283 22.1374 23.0891 22.3221 23.013C22.5068 22.9369 22.6745 22.8253 22.8157 22.6847C22.9569 22.5441 23.0688 22.3772 23.145 22.1935C23.2212 22.0099 23.2602 21.8131 23.2598 21.6144V1.51388C23.2602 1.31523 23.2212 1.11845 23.145 0.934793C23.0688 0.751141 22.9569 0.584226 22.8157 0.443605C22.6745 0.302985 22.5068 0.191422 22.3221 0.115301C22.1374 0.0391809 21.9395 -4.84011e-07 21.7396 0ZM8.70522 12.7346L9.47038 8.37301H13.0746C13.6546 8.34463 14.2243 8.53253 14.672 8.89987C14.8702 9.07877 15.0263 9.29871 15.1296 9.54416C15.2328 9.78962 15.2805 10.0546 15.2694 10.3204C15.2752 10.6426 15.2114 10.9624 15.0823 11.258C14.9532 11.5537 14.7618 11.8184 14.521 12.0343C14.0288 12.5012 13.2972 12.7346 12.3262 12.7346H8.70522ZM19.5515 20.0706H17.5212C17.4029 20.071 17.2866 20.0404 17.1841 19.9819C17.0815 19.9233 16.9964 19.8389 16.9373 19.7371L14.2022 14.6186C14.9307 14.4623 15.6244 14.1753 16.2493 13.7716C16.7612 13.4497 17.1881 13.0106 17.4943 12.4912C17.7361 12.0705 17.9265 11.6228 18.0615 11.1573C18.1703 10.764 18.2267 10.3582 18.2293 9.95025C18.2461 9.40152 18.1425 8.85573 17.9258 8.35075C17.709 7.84578 17.3843 7.39369 16.9742 7.02586C16.1352 6.26559 14.9987 5.88434 13.5646 5.88211H7.57428C7.43966 5.87977 7.3095 5.93007 7.21184 6.02217C7.11841 6.09974 7.05739 6.20911 7.04069 6.32894L4.69155 19.5304C4.66347 19.6829 4.58279 19.8209 4.46335 19.9207C4.34392 20.0205 4.19322 20.0759 4.03717 20.0772H3.70158C3.52357 20.0772 3.35284 20.007 3.22697 19.8819C3.1011 19.7568 3.03039 19.5872 3.03039 19.4103V3.68466C3.03039 3.50778 3.1011 3.33815 3.22697 3.21308C3.35284 3.08801 3.52357 3.01775 3.70158 3.01775H19.5414C19.7194 3.01775 19.8902 3.08801 20.016 3.21308C20.1419 3.33815 20.2126 3.50778 20.2126 3.68466V19.427C20.2109 19.601 20.1408 19.7674 20.0173 19.8908C19.8938 20.0141 19.7266 20.0846 19.5515 20.0872V20.0706Z" fill="#FF8600"/>
</svg>
